<?xml version="1.0" encoding="UTF-8"?>
<!DOCTYPE svg PUBLIC "-//W3C//DTD SVG 1.1//EN" "http://www.w3.org/Graphics/SVG/1.1/DTD/svg11.dtd">
<svg xmlns="http://www.w3.org/2000/svg" version="1.1" width="100px" height="100px" style="shape-rendering:geometricPrecision; text-rendering:geometricPrecision; image-rendering:optimizeQuality; fill-rule:evenodd; clip-rule:evenodd" xmlns:xlink="http://www.w3.org/1999/xlink">
<g><path style="opacity:0.873" fill="#ffbaa2" d="M 37.5,0.5 C 37.5,0.166667 37.5,-0.166667 37.5,-0.5C 41.1667,-0.5 44.8333,-0.5 48.5,-0.5C 49.6935,0.271873 50.6935,1.27187 51.5,2.5C 50.8333,2.5 50.1667,2.5 49.5,2.5C 48.7095,1.59872 47.7095,0.932053 46.5,0.5C 43.8333,0.5 41.1667,0.5 38.5,0.5C 38.1667,0.5 37.8333,0.5 37.5,0.5 Z"/></g>
<g><path style="opacity:1" fill="#ff8646" d="M 37.5,0.5 C 37.8333,0.5 38.1667,0.5 38.5,0.5C 39.0906,1.15149 39.7573,1.81815 40.5,2.5C 37.8488,9.78416 35.5155,17.1175 33.5,24.5C 33.7517,26.0729 34.4183,27.4062 35.5,28.5C 31.8467,27.0106 29.3467,24.3439 28,20.5C 27.3333,16.5 27.3333,12.5 28,8.5C 28.2784,7.5842 28.7784,6.91753 29.5,6.5C 28.3383,11.8365 28.8383,16.8365 31,21.5C 34.1037,15.7053 36.2703,9.53862 37.5,3C 36.2068,2.50999 34.8734,2.34332 33.5,2.5C 34.287,0.895779 35.6203,0.229113 37.5,0.5 Z"/></g>
<g><path style="opacity:1" fill="#ff6b42" d="M 46.5,0.5 C 47.7095,0.932053 48.7095,1.59872 49.5,2.5C 46.306,2.17556 45.306,3.34223 46.5,6C 41.9239,12.4253 38.9239,19.592 37.5,27.5C 35.1368,25.917 35.1368,24.0836 37.5,22C 37.0426,21.586 36.7093,21.086 36.5,20.5C 39.0861,14.5858 41.5861,8.58579 44,2.5C 44.9947,1.93406 45.828,1.26739 46.5,0.5 Z"/></g>
<g><path style="opacity:1" fill="#ff674e" d="M 49.5,2.5 C 50.1667,2.5 50.8333,2.5 51.5,2.5C 52.5,2.83333 53.1667,3.5 53.5,4.5C 52.5,4.5 51.5,4.5 50.5,4.5C 47.9696,11.5842 45.1362,18.5842 42,25.5C 41.235,27.0657 41.4017,28.3991 42.5,29.5C 42.8333,29.5 43.1667,29.5 43.5,29.5C 42.791,30.404 41.791,30.7373 40.5,30.5C 38.4471,30.5979 36.7804,29.9313 35.5,28.5C 36.4916,28.6716 37.1583,28.3382 37.5,27.5C 38.9239,19.592 41.9239,12.4253 46.5,6C 45.306,3.34223 46.306,2.17556 49.5,2.5 Z"/></g>
<g><path style="opacity:0.608" fill="#ffd6c0" d="M 33.5,2.5 C 32.5,4.16667 31.1667,5.5 29.5,6.5C 29.8333,4.16667 31.1667,2.83333 33.5,2.5 Z"/></g>
<g><path style="opacity:1" fill="#ff6458" d="M 53.5,4.5 C 55.2624,5.26231 56.2624,6.59565 56.5,8.5C 55.2794,7.97168 54.1127,7.30501 53,6.5C 48.5769,13.7236 45.0769,21.3902 42.5,29.5C 41.4017,28.3991 41.235,27.0657 42,25.5C 45.1362,18.5842 47.9696,11.5842 50.5,4.5C 51.5,4.5 52.5,4.5 53.5,4.5 Z"/></g>
<g><path style="opacity:1" fill="#ff802e" d="M 33.5,2.5 C 34.8734,2.34332 36.2068,2.50999 37.5,3C 36.2703,9.53862 34.1037,15.7053 31,21.5C 28.8383,16.8365 28.3383,11.8365 29.5,6.5C 31.1667,5.5 32.5,4.16667 33.5,2.5 Z"/></g>
<g><path style="opacity:1" fill="#ff6f37" d="M 38.5,0.5 C 41.1667,0.5 43.8333,0.5 46.5,0.5C 45.828,1.26739 44.9947,1.93406 44,2.5C 41.5861,8.58579 39.0861,14.5858 36.5,20.5C 36.7093,21.086 37.0426,21.586 37.5,22C 35.1368,24.0836 35.1368,25.917 37.5,27.5C 37.1583,28.3382 36.4916,28.6716 35.5,28.5C 34.4183,27.4062 33.7517,26.0729 33.5,24.5C 35.5155,17.1175 37.8488,9.78416 40.5,2.5C 39.7573,1.81815 39.0906,1.15149 38.5,0.5 Z"/></g>
<g><path style="opacity:1" fill="#fe5067" d="M 57.5,12.5 C 57.5,13.8333 57.5,15.1667 57.5,16.5C 56.2058,17.2899 55.0391,18.2899 54,19.5C 51.9882,24.2002 49.4882,28.5335 46.5,32.5C 45.4937,32.0623 45.4937,31.3957 46.5,30.5C 47.4014,23.1081 50.4014,16.7748 55.5,11.5C 56.1835,11.8627 56.8501,12.1961 57.5,12.5 Z"/></g>
<g><path style="opacity:1" fill="#ff5a5d" d="M 56.5,8.5 C 57.3382,8.84171 57.6716,9.50838 57.5,10.5C 57.5,11.1667 57.5,11.8333 57.5,12.5C 56.8501,12.1961 56.1835,11.8627 55.5,11.5C 50.4014,16.7748 47.4014,23.1081 46.5,30.5C 45.391,30.4431 44.391,30.1098 43.5,29.5C 43.1667,29.5 42.8333,29.5 42.5,29.5C 45.0769,21.3902 48.5769,13.7236 53,6.5C 54.1127,7.30501 55.2794,7.97168 56.5,8.5 Z"/></g>
<g><path style="opacity:0.584" fill="#deb2dd" d="M 57.5,10.5 C 58.4912,17.3134 58.8245,24.3134 58.5,31.5C 67.1667,31.5 75.8333,31.5 84.5,31.5C 84.8128,35.0419 84.4794,38.3752 83.5,41.5C 83.5,38.5 83.5,35.5 83.5,32.5C 81.1667,32.5 78.8333,32.5 76.5,32.5C 75.5,32.5 74.5,32.5 73.5,32.5C 72.1667,32.5 70.8333,32.5 69.5,32.5C 68.1667,32.5 66.8333,32.5 65.5,32.5C 64.1667,32.5 62.8333,32.5 61.5,32.5C 60.1667,32.5 58.8333,32.5 57.5,32.5C 57.5,27.1667 57.5,21.8333 57.5,16.5C 57.5,15.1667 57.5,13.8333 57.5,12.5C 57.5,11.8333 57.5,11.1667 57.5,10.5 Z"/></g>
<g><path style="opacity:1" fill="#8c26c8" d="M 69.5,32.5 C 70.8333,32.5 72.1667,32.5 73.5,32.5C 74.374,38.2573 74.7074,43.924 74.5,49.5C 73.2209,50.968 71.5542,51.6347 69.5,51.5C 70.0283,50.2794 70.695,49.1127 71.5,48C 71.7464,43.1859 71.4131,38.3525 70.5,33.5C 69.8333,33.5 69.5,33.1667 69.5,32.5 Z"/></g>
<g><path style="opacity:1" fill="#7725d6" d="M 76.5,32.5 C 78.8333,32.5 81.1667,32.5 83.5,32.5C 83.5,35.5 83.5,38.5 83.5,41.5C 83.6716,42.4916 83.3382,43.1583 82.5,43.5C 81.1667,43.5 79.8333,43.5 78.5,43.5C 78.33,42.1779 78.6634,41.0113 79.5,40C 77.8249,37.8156 76.8249,35.3156 76.5,32.5 Z"/></g>
<g><path style="opacity:1" fill="#b53ba9" d="M 61.5,33.5 C 61.5,33.1667 61.5,32.8333 61.5,32.5C 62.8333,32.5 64.1667,32.5 65.5,32.5C 66.0906,33.1515 66.7573,33.8182 67.5,34.5C 64.9144,39.3402 62.5811,44.3402 60.5,49.5C 59.9747,50.1924 59.3081,50.6924 58.5,51C 59.4158,51.2784 60.0825,51.7784 60.5,52.5C 59.5,52.5 58.5,52.5 57.5,52.5C 56.8333,52.5 56.1667,52.5 55.5,52.5C 58.0634,46.8136 60.7301,40.647 63.5,34C 62.9056,33.5357 62.2389,33.369 61.5,33.5 Z"/></g>
<g><path style="opacity:0.541" fill="#ffd8d2" d="M 44.5,34.5 C 43.4863,35.6737 42.153,36.3404 40.5,36.5C 41.287,34.8958 42.6203,34.2291 44.5,34.5 Z"/></g>
<g><path style="opacity:1" fill="#eb4c7b" d="M 57.5,16.5 C 57.5,21.8333 57.5,27.1667 57.5,32.5C 54.8621,35.4744 52.1954,38.4744 49.5,41.5C 49.5,40.8333 49.5,40.1667 49.5,39.5C 49.6287,37.7839 49.962,36.1172 50.5,34.5C 51.2389,34.631 51.9056,34.4643 52.5,34C 50.2922,33.8091 48.2922,33.3091 46.5,32.5C 49.4882,28.5335 51.9882,24.2002 54,19.5C 55.0391,18.2899 56.2058,17.2899 57.5,16.5 Z"/></g>
<g><path style="opacity:1" fill="#ff654b" d="M 44.5,34.5 C 44.8333,34.5 45.1667,34.5 45.5,34.5C 46.2389,34.369 46.9056,34.5357 47.5,35C 46.5842,35.2784 45.9175,35.7784 45.5,36.5C 43.8297,36.7512 42.3297,37.4178 41,38.5C 34.2206,50.2829 30.2206,62.9496 29,76.5C 28.5002,67.8397 28.3336,59.1731 28.5,50.5C 28.7549,48.0326 29.7549,46.0326 31.5,44.5C 33.8333,42.8333 35.8333,40.8333 37.5,38.5C 38.2905,37.5987 39.2905,36.9321 40.5,36.5C 42.153,36.3404 43.4863,35.6737 44.5,34.5 Z"/></g>
<g><path style="opacity:1" fill="#872fd1" d="M 73.5,32.5 C 74.5,32.5 75.5,32.5 76.5,32.5C 76.8249,35.3156 77.8249,37.8156 79.5,40C 78.6634,41.0113 78.33,42.1779 78.5,43.5C 79.8333,43.5 81.1667,43.5 82.5,43.5C 82.1551,46.1979 80.8218,48.1979 78.5,49.5C 77.1667,49.5 75.8333,49.5 74.5,49.5C 74.7074,43.924 74.374,38.2573 73.5,32.5 Z"/></g>
<g><path style="opacity:0.49" fill="#ffcec0" d="M 37.5,38.5 C 35.8333,40.8333 33.8333,42.8333 31.5,44.5C 32.5,41.5 34.5,39.5 37.5,38.5 Z"/></g>
<g><path style="opacity:1" fill="#d94d87" d="M 57.5,32.5 C 58.8333,32.5 60.1667,32.5 61.5,32.5C 61.5,32.8333 61.5,33.1667 61.5,33.5C 59.9826,33.5106 58.8159,34.1772 58,35.5C 55.7806,40.94 53.2806,46.2733 50.5,51.5C 51.7865,51.4764 53.1198,51.8097 54.5,52.5C 53.5084,52.3284 52.8417,52.6618 52.5,53.5C 50.2163,53.9752 48.2163,54.9752 46.5,56.5C 46.1961,55.8501 45.8627,55.1835 45.5,54.5C 46.5584,50.0583 47.8917,45.7249 49.5,41.5C 52.1954,38.4744 54.8621,35.4744 57.5,32.5 Z"/></g>
<g><path style="opacity:1" fill="#ab3cb9" d="M 65.5,32.5 C 66.8333,32.5 68.1667,32.5 69.5,32.5C 69.5,33.1667 69.8333,33.5 70.5,33.5C 69.3063,38.5821 67.8063,43.5821 66,48.5C 65.2276,49.8491 64.0609,50.6824 62.5,51C 64.8098,51.4966 67.1432,51.6633 69.5,51.5C 71.5542,51.6347 73.2209,50.968 74.5,49.5C 75.8333,49.5 77.1667,49.5 78.5,49.5C 76.5739,51.2927 74.2406,52.2927 71.5,52.5C 67.8333,52.5 64.1667,52.5 60.5,52.5C 60.0825,51.7784 59.4158,51.2784 58.5,51C 59.3081,50.6924 59.9747,50.1924 60.5,49.5C 62.5811,44.3402 64.9144,39.3402 67.5,34.5C 66.7573,33.8182 66.0906,33.1515 65.5,32.5 Z"/></g>
<g><path style="opacity:1" fill="#fe6d67" d="M 45.5,36.5 C 41.5329,43.0625 38.5329,50.0625 36.5,57.5C 33.2389,65.2078 30.9056,73.2078 29.5,81.5C 28.7321,80.7375 28.2321,79.7375 28,78.5C 27.1757,68.9908 27.3424,59.6575 28.5,50.5C 28.3336,59.1731 28.5002,67.8397 29,76.5C 30.2206,62.9496 34.2206,50.2829 41,38.5C 42.3297,37.4178 43.8297,36.7512 45.5,36.5 Z"/></g>
<g><path style="opacity:1" fill="#ef5a6d" d="M 50.5,34.5 C 49.962,36.1172 49.6287,37.7839 49.5,39.5C 47.4503,41.2368 45.617,43.2368 44,45.5C 42.4095,50.1058 40.9095,54.7724 39.5,59.5C 38.2719,60.3065 37.2719,61.3065 36.5,62.5C 36.6287,60.7839 36.962,59.1172 37.5,57.5C 40.2846,51.9873 42.7846,46.3206 45,40.5C 46.6338,38.1631 48.4671,36.1631 50.5,34.5 Z"/></g>
<g><path style="opacity:1" fill="#9828c2" d="M 70.5,33.5 C 71.4131,38.3525 71.7464,43.1859 71.5,48C 70.695,49.1127 70.0283,50.2794 69.5,51.5C 67.1432,51.6633 64.8098,51.4966 62.5,51C 64.0609,50.6824 65.2276,49.8491 66,48.5C 67.8063,43.5821 69.3063,38.5821 70.5,33.5 Z"/></g>
<g><path style="opacity:1" fill="#c94498" d="M 61.5,33.5 C 62.2389,33.369 62.9056,33.5357 63.5,34C 60.7301,40.647 58.0634,46.8136 55.5,52.5C 55.1667,52.5 54.8333,52.5 54.5,52.5C 53.1198,51.8097 51.7865,51.4764 50.5,51.5C 53.2806,46.2733 55.7806,40.94 58,35.5C 58.8159,34.1772 59.9826,33.5106 61.5,33.5 Z"/></g>
<g><path style="opacity:1" fill="#e85676" d="M 49.5,39.5 C 49.5,40.1667 49.5,40.8333 49.5,41.5C 47.8917,45.7249 46.5584,50.0583 45.5,54.5C 45.8627,55.1835 46.1961,55.8501 46.5,56.5C 44.1394,58.1939 42.1394,60.1939 40.5,62.5C 39.8902,61.609 39.5569,60.609 39.5,59.5C 40.9095,54.7724 42.4095,50.1058 44,45.5C 45.617,43.2368 47.4503,41.2368 49.5,39.5 Z"/></g>
<g><path style="opacity:1" fill="#f7646b" d="M 43.5,29.5 C 44.391,30.1098 45.391,30.4431 46.5,30.5C 45.4937,31.3957 45.4937,32.0623 46.5,32.5C 48.2922,33.3091 50.2922,33.8091 52.5,34C 51.9056,34.4643 51.2389,34.631 50.5,34.5C 48.4671,36.1631 46.6338,38.1631 45,40.5C 42.7846,46.3206 40.2846,51.9873 37.5,57.5C 37.1667,57.5 36.8333,57.5 36.5,57.5C 38.5329,50.0625 41.5329,43.0625 45.5,36.5C 45.9175,35.7784 46.5842,35.2784 47.5,35C 46.9056,34.5357 46.2389,34.369 45.5,34.5C 44.0158,32.9263 42.3492,31.593 40.5,30.5C 41.791,30.7373 42.791,30.404 43.5,29.5 Z"/></g>
<g><path style="opacity:0.439" fill="#d4c3ee" d="M 57.5,52.5 C 58.5,52.5 59.5,52.5 60.5,52.5C 64.1667,52.5 67.8333,52.5 71.5,52.5C 67.3656,53.4849 63.0323,53.8182 58.5,53.5C 58.5,59.5 58.5,65.5 58.5,71.5C 57.5098,65.3554 57.1765,59.0221 57.5,52.5 Z"/></g>
<g><path style="opacity:1" fill="#651db3" d="M 54.5,52.5 C 54.8333,52.5 55.1667,52.5 55.5,52.5C 57.0916,58.1836 56.425,63.5169 53.5,68.5C 52.609,69.1098 51.609,69.4431 50.5,69.5C 50.6775,68.3052 51.0109,67.1385 51.5,66C 50.4273,65.7934 49.4273,64.96 48.5,63.5C 50.2812,60.7765 51.9479,57.9432 53.5,55C 52.944,54.6174 52.6107,54.1174 52.5,53.5C 52.8417,52.6618 53.5084,52.3284 54.5,52.5 Z"/></g>
<g><path style="opacity:1" fill="#621ba8" d="M 52.5,53.5 C 52.6107,54.1174 52.944,54.6174 53.5,55C 51.9479,57.9432 50.2812,60.7765 48.5,63.5C 47.5416,63.9528 46.7083,64.6195 46,65.5C 45,64.1667 44,64.1667 43,65.5C 42.6667,64.8333 42.3333,64.1667 42,63.5C 41.1376,65.087 40.4709,66.7536 40,68.5C 39.5357,67.9056 39.369,67.2389 39.5,66.5C 39.4326,65.0413 39.7659,63.7079 40.5,62.5C 42.1394,60.1939 44.1394,58.1939 46.5,56.5C 48.2163,54.9752 50.2163,53.9752 52.5,53.5 Z"/></g>
<g><path style="opacity:1" fill="#ee557a" d="M 39.5,59.5 C 39.5569,60.609 39.8902,61.609 40.5,62.5C 39.7659,63.7079 39.4326,65.0413 39.5,66.5C 38.596,67.209 38.2627,68.209 38.5,69.5C 37.5206,72.6248 37.1872,75.9581 37.5,79.5C 35.86,84.4085 36.1933,89.0752 38.5,93.5C 36.9731,93.573 35.9731,92.9063 35.5,91.5C 35.573,89.9731 34.9063,88.9731 33.5,88.5C 32.8333,88.5 32.5,88.1667 32.5,87.5C 32.4431,86.391 32.1098,85.391 31.5,84.5C 33.4227,77.2189 35.0894,69.8856 36.5,62.5C 37.2719,61.3065 38.2719,60.3065 39.5,59.5 Z"/></g>
<g><path style="opacity:1" fill="#7721af" d="M 48.5,63.5 C 49.4273,64.96 50.4273,65.7934 51.5,66C 51.0109,67.1385 50.6775,68.3052 50.5,69.5C 48.5362,72.0178 47.8695,74.6845 48.5,77.5C 46.8211,77.1077 45.1545,76.6077 43.5,76C 43.67,74.4305 44.0033,72.5972 44.5,70.5C 42.549,70.2267 41.049,70.8934 40,72.5C 39.7679,71.2625 39.2679,70.2625 38.5,69.5C 38.2627,68.209 38.596,67.209 39.5,66.5C 39.369,67.2389 39.5357,67.9056 40,68.5C 40.4709,66.7536 41.1376,65.087 42,63.5C 42.3333,64.1667 42.6667,64.8333 43,65.5C 44,64.1667 45,64.1667 46,65.5C 46.7083,64.6195 47.5416,63.9528 48.5,63.5 Z"/></g>
<g><path style="opacity:0.663" fill="#cdb7e7" d="M 59.5,73.5 C 60.8333,74.1667 61.8333,75.1667 62.5,76.5C 60.5,76.5 59.5,75.5 59.5,73.5 Z"/></g>
<g><path style="opacity:1" fill="#f85a69" d="M 36.5,57.5 C 36.8333,57.5 37.1667,57.5 37.5,57.5C 36.962,59.1172 36.6287,60.7839 36.5,62.5C 35.0894,69.8856 33.4227,77.2189 31.5,84.5C 31.1667,84.5 30.8333,84.5 30.5,84.5C 29.8902,83.609 29.5569,82.609 29.5,81.5C 30.9056,73.2078 33.2389,65.2078 36.5,57.5 Z"/></g>
<g><path style="opacity:1" fill="#8321ab" d="M 38.5,69.5 C 39.2679,70.2625 39.7679,71.2625 40,72.5C 41.049,70.8934 42.549,70.2267 44.5,70.5C 44.0033,72.5972 43.67,74.4305 43.5,76C 45.1545,76.6077 46.8211,77.1077 48.5,77.5C 47.1667,78.5 47.1667,79.5 48.5,80.5C 47.596,81.209 47.2627,82.209 47.5,83.5C 45.9582,82.6993 44.2915,82.366 42.5,82.5C 41.8826,82.3893 41.3826,82.056 41,81.5C 41.3308,83.0187 41.1641,84.352 40.5,85.5C 39.8698,83.2504 38.8698,81.2504 37.5,79.5C 37.1872,75.9581 37.5206,72.6248 38.5,69.5 Z"/></g>
<g><path style="opacity:0.059" fill="#e4d9f0" d="M 69.5,78.5 C 71.1667,78.5 72.8333,78.5 74.5,78.5C 74.8016,81.0593 74.4682,83.3926 73.5,85.5C 73.5,83.5 73.5,81.5 73.5,79.5C 71.901,79.7678 70.5676,79.4345 69.5,78.5 Z"/></g>
<g><path style="opacity:1" fill="#8422bd" d="M 53.5,68.5 C 53.67,69.8221 53.3366,70.9887 52.5,72C 53.8141,72.985 54.8141,74.1516 55.5,75.5C 54.6643,79.4165 54.6643,83.2499 55.5,87C 57.0325,89.0289 58.6992,90.8622 60.5,92.5C 59.7784,92.9175 59.2784,93.5842 59,94.5C 57.2794,92.2893 55.2794,90.2893 53,88.5C 51.6319,87.0069 51.4652,85.5069 52.5,84C 50.9069,83.0513 49.5736,81.8846 48.5,80.5C 47.1667,79.5 47.1667,78.5 48.5,77.5C 47.8695,74.6845 48.5362,72.0178 50.5,69.5C 51.609,69.4431 52.609,69.1098 53.5,68.5 Z"/></g>
<g><path style="opacity:1" fill="#8129c8" d="M 69.5,88.5 C 69.3284,89.4916 69.6618,90.1583 70.5,90.5C 70.5,90.8333 70.5,91.1667 70.5,91.5C 69.0892,93.914 67.0892,95.5806 64.5,96.5C 62.6214,96.6068 62.2881,96.1068 63.5,95C 62.0577,94.6232 61.0577,93.7899 60.5,92.5C 58.6992,90.8622 57.0325,89.0289 55.5,87C 54.6643,83.2499 54.6643,79.4165 55.5,75.5C 55.4614,74.2438 55.9614,73.2438 57,72.5C 57.4471,78.5193 59.4471,83.8526 63,88.5C 65.0811,87.6669 67.2478,87.6669 69.5,88.5 Z"/></g>
<g><path style="opacity:1" fill="#7120c6" d="M 55.5,52.5 C 56.1667,52.5 56.8333,52.5 57.5,52.5C 57.1765,59.0221 57.5098,65.3554 58.5,71.5C 58.8333,72.1667 59.1667,72.8333 59.5,73.5C 59.5,75.5 60.5,76.5 62.5,76.5C 63.1667,76.5 63.5,76.8333 63.5,77.5C 61.2355,77.4406 60.9022,78.2739 62.5,80C 64.3655,83.3659 67.0322,85.8659 70.5,87.5C 70.3764,88.1067 70.0431,88.44 69.5,88.5C 67.2478,87.6669 65.0811,87.6669 63,88.5C 59.4471,83.8526 57.4471,78.5193 57,72.5C 55.9614,73.2438 55.4614,74.2438 55.5,75.5C 54.8141,74.1516 53.8141,72.985 52.5,72C 53.3366,70.9887 53.67,69.8221 53.5,68.5C 56.425,63.5169 57.0916,58.1836 55.5,52.5 Z"/></g>
<g><path style="opacity:1" fill="#722dd2" d="M 63.5,77.5 C 65.5,77.8333 67.5,78.1667 69.5,78.5C 70.5676,79.4345 71.901,79.7678 73.5,79.5C 73.5,81.5 73.5,83.5 73.5,85.5C 73.7373,86.791 73.404,87.791 72.5,88.5C 71.5,88.8333 70.8333,89.5 70.5,90.5C 69.6618,90.1583 69.3284,89.4916 69.5,88.5C 70.0431,88.44 70.3764,88.1067 70.5,87.5C 67.0322,85.8659 64.3655,83.3659 62.5,80C 60.9022,78.2739 61.2355,77.4406 63.5,77.5 Z"/></g>
<g><path style="opacity:0.008" fill="#feebee" d="M 30.5,84.5 C 30.8333,84.5 31.1667,84.5 31.5,84.5C 32.1098,85.391 32.4431,86.391 32.5,87.5C 31.0937,87.0269 30.427,86.0269 30.5,84.5 Z"/></g>
<g><path style="opacity:1" fill="#9725b8" d="M 42.5,82.5 C 44.2915,82.366 45.9582,82.6993 47.5,83.5C 49.3746,87.5496 52.2079,90.883 56,93.5C 57.0086,95.0249 57.5086,96.6916 57.5,98.5C 55.4727,98.6621 53.4727,98.4955 51.5,98C 53.158,97.2747 53.658,96.108 53,94.5C 49.6349,90.3068 46.1349,86.3068 42.5,82.5 Z"/></g>
<g><path style="opacity:0.078" fill="#fce0e8" d="M 33.5,88.5 C 34.9063,88.9731 35.573,89.9731 35.5,91.5C 34.0937,91.0269 33.427,90.0269 33.5,88.5 Z"/></g>
<g><path style="opacity:1" fill="#a63cb9" d="M 42.5,82.5 C 46.1349,86.3068 49.6349,90.3068 53,94.5C 53.658,96.108 53.158,97.2747 51.5,98C 53.4727,98.4955 55.4727,98.6621 57.5,98.5C 58.1667,98.5 58.8333,98.5 59.5,98.5C 59.5,98.8333 59.5,99.1667 59.5,99.5C 56.5,99.5 53.5,99.5 50.5,99.5C 50.5,98.8333 50.1667,98.5 49.5,98.5C 49.0825,97.7784 48.4158,97.2784 47.5,97C 48.5,96.6667 49.5,96.3333 50.5,96C 46.2877,93.2889 42.9544,89.7889 40.5,85.5C 41.1641,84.352 41.3308,83.0187 41,81.5C 41.3826,82.056 41.8826,82.3893 42.5,82.5 Z"/></g>
<g><path style="opacity:0.004" fill="#eee5f5" d="M 72.5,88.5 C 72.573,90.0269 71.9063,91.0269 70.5,91.5C 70.5,91.1667 70.5,90.8333 70.5,90.5C 70.8333,89.5 71.5,88.8333 72.5,88.5 Z"/></g>
<g><path style="opacity:1" fill="#9433c1" d="M 48.5,80.5 C 49.5736,81.8846 50.9069,83.0513 52.5,84C 51.4652,85.5069 51.6319,87.0069 53,88.5C 55.2794,90.2893 57.2794,92.2893 59,94.5C 59.2784,93.5842 59.7784,92.9175 60.5,92.5C 61.0577,93.7899 62.0577,94.6232 63.5,95C 62.2881,96.1068 62.6214,96.6068 64.5,96.5C 63.2196,97.9313 61.5529,98.5979 59.5,98.5C 58.8333,98.5 58.1667,98.5 57.5,98.5C 57.5086,96.6916 57.0086,95.0249 56,93.5C 52.2079,90.883 49.3746,87.5496 47.5,83.5C 47.2627,82.209 47.596,81.209 48.5,80.5 Z"/></g>
<g><path style="opacity:1" fill="#cd47ab" d="M 37.5,79.5 C 38.8698,81.2504 39.8698,83.2504 40.5,85.5C 42.9544,89.7889 46.2877,93.2889 50.5,96C 49.5,96.3333 48.5,96.6667 47.5,97C 48.4158,97.2784 49.0825,97.7784 49.5,98.5C 45.164,98.1631 41.4974,96.4965 38.5,93.5C 36.1933,89.0752 35.86,84.4085 37.5,79.5 Z"/></g>
</svg>
